# AST/ASF file generated using VICON BodyLanguage
# -----------------------------------------------
:version 1.10
:name VICON
:units
  mass 1.0
  length 0.45
  angle deg
:documentation
   .ast/.asf automatically generated from VICON data using
   VICON BodyBuilder and BodyLanguage model FoxedUp or BRILLIANT.MOD
:root
   order TX TY TZ RX RY RZ
   axis XYZ
   position 0 0 0  
   orientation 0 0 0 
:bonedata
  begin
     id 1 
     name lhipjoint
     direction 0.677091 -0.635792 0.370561 
     length 2.74323 
     axis 0 0 0  XYZ
  end
  begin
     id 2 
     name lfemur
     direction 0.34202 -0.939693 0  
     length 7.44995  
     axis 0 0 20  XYZ
    dof rx ry rz
    limits (-160.0 20.0)
           (-70.0 70.0)
           (-60.0 70.0)
  end
  begin
     id 3 
     name ltibia
     direction 0.34202 -0.939693 0   
     length 7.34467   
     axis 0 0 20   XYZ
    dof rx
    limits (-10.0 170.0)
  end
  begin
     id 4 
     name lfoot
     direction 0.101953 -0.280114 0.954537   
     length 1.72105   
     axis -90 7.62852e-016 20   XYZ
    dof rx rz
    limits (-45.0 90.0)
           (-70.0 20.0)
  end
  begin
     id 5 
     name ltoes
     direction 1.53537e-011 -4.21915e-011 1   
     length 0.865872   
     axis -90 7.62852e-016 20   XYZ
    dof rx
    limits (-90.0 20.0)
  end
  begin
     id 6 
     name rhipjoint
     direction -0.695735 -0.620586 0.361699   
     length 2.81045  
     axis 0 0 0  XYZ 
  end
  begin
     id 7 
     name rfemur
     direction -0.34202 -0.939693 0   
     length 7.29387   
     axis 0 0 -20   XYZ
    dof rx ry rz
    limits (-160.0 20.0)
           (-70.0 70.0)
           (-70.0 60.0)
  end
  begin
     id 8 
     name rtibia
     direction -0.34202 -0.939693 0   
     length 7.44935   
     axis 0 0 -20   XYZ
    dof rx
    limits (-10.0 170.0)
 end
 begin
     id 9 
     name rfoot
     direction -0.104163 -0.286184 0.952496   
     length 1.77731  
     axis -90 -7.62852e-016 -20   XYZ
    dof rx rz
    limits (-45.0 90.0)
           (-20.0 70.0)
  end
  begin
     id 10 
     name rtoes
     direction -1.5355e-011 -4.21888e-011 1   
     length 0.892424   
     axis -90 -7.62852e-016 -20   XYZ
    dof rx
    limits (-90.0 20.0)
  end
  begin
     id 11 
     name lowerback
     direction 0.0100202 0.997226 -0.0737589   
     length 2.16892   
     axis 0 0 0   XYZ
    dof rx ry rz
    limits (-20.0 45.0)
           (-30.0 30.0)
           (-30.0 30.0)
  end
  begin
     id 12 
     name upperback
     direction 0.00432398 0.999988 -0.00215019   
     length 2.17326   
     axis 0 0 0   XYZ
    dof rx ry rz
    limits (-20.0 45.0)
           (-30.0 30.0)
           (-30.0 30.0)
  end
  begin
     id 13 
     name thorax
     direction -0.00195047 0.999485 0.0320434   
     length 2.18139   
     axis 0 0 0   XYZ
    dof rx ry rz
    limits (-20.0 45.0)
           (-30.0 30.0)
           (-30.0 30.0)
  end
  begin
     id 14 
     name lowerneck
     direction 0.00782762 0.986241 0.165128   
     length 1.88415   
     axis 0 0 0   XYZ
    dof rx ry rz
    limits (-20.0 45.0)
           (-30.0 30.0)
           (-30.0 30.0)
  end
  begin
     id 15 
     name upperneck
     direction 0.00988667 0.981098 -0.193258   
     length 1.9242   
     axis 0 0 0   XYZ
    dof rx ry rz
    limits (-20.0 45.0)
           (-30.0 30.0)
           (-30.0 30.0)
  end
  begin
     id 16
     name head
     direction 0.00252199 0.996513 -0.0833958  
     length 1.93887  
     axis 0 0 0   XYZ
    dof rx ry rz
    limits (-20.0 45.0)
           (-30.0 30.0)
           (-30.0 30.0)
  end
  begin
     id 17 
     name lclavicle
     direction 0.929492 0.368193 -0.0218667  
     length 3.5955  
     axis 0 0 0   XYZ
    dof ry rz
    limits (-20.0 10.0)
           (0.0 20.0)
  end
  begin
     id 18 
     name lhumerus
     direction 1 -4.48972e-011 1.41911e-027   
     length 5.2795   
     axis 180 -30 -90   XYZ
    dof rx ry rz
    limits (-60.0 90.0)
           (-90.0 90.0)
           (-90.0 90.0)
  end
  begin
     id 19
     name lradius
     direction 1 -4.48963e-011 7.05772e-027   
     length 3.53504   
     axis 180 -30 -90   XYZ
    dof rx
    limits (-10.0 170.0)
  end
  begin
     id 20
     name lwrist
     direction 1 -4.48957e-011 9.54866e-027   
     length 1.76752   
     axis -7.69462e-015 90 90   XYZ
    dof ry
    limits (-180.0 0.0)
 end
  begin
     id 21 
     name lhand
     direction 1 -4.48979e-011 1.90973e-026   
     length 0.667948   
     axis -1.21857e-014 90 90   XYZ
    dof rx rz
    limits (-90.0 90.0)
           (-45.0 45.0)
  end
  begin
     id 22 
     name lfingers
     direction 1 -4.48987e-011 3.81946e-026   
     length 0.538517   
     axis -2.43714e-014 90 90   XYZ
    dof rx
    limits (0.0 90.0)
  end
  begin
     id 23
     name lthumb
     direction 0.707107 -6.34962e-011 0.707107   
     length 0.773206   
     axis -90 45 2.85299e-015   XYZ
    dof rx rz
    limits (-45.0 45.0)
           (-45.0 45.0)
  end
  begin
     id 24 
     name rclavicle
     direction -0.898763 0.414256 -0.143584   
     length 3.5176  
     axis 0 0 0   XYZ 
    dof ry rz
    limits (-10.0 20.0)
           (-20.0 0.0)
  end
  begin
     id 25 
     name rhumerus
     direction -1 -4.48971e-011 1.129e-027  
     length 5.25035   
     axis 180 30 90   XYZ
    dof rx ry rz
    limits (-90.0 60.0)
           (-90.0 90.0)
           (-90.0 90.0)
  end
  begin
     id 26 
     name rradius
     direction -1 -4.48955e-011 6.34664e-027   
     length 3.58884   
     axis 180 30 90   XYZ
    dof rx
    limits (-10.0 170.0)
  end
  begin
     id 27 
     name rwrist
     direction -1 -4.48966e-011 9.54866e-027   
     length 1.79442   
     axis -7.69462e-015 -90 -90   XYZ
    dof ry
    limits (-180.0 0.0)
  end
  begin
     id 28
     name rhand
     direction -1 -4.48973e-011 1.90973e-026   
     length 0.779235   
     axis -1.21857e-014 -90 -90   XYZ
    dof rx rz
    limits (-90.0 90.0)
           (-45.0 45.0)
  end
  begin
     id 29
     name rfingers
     direction -1 -4.48984e-011 3.81946e-026   
     length 0.62824   
     axis -2.43714e-014 -90 -90   XYZ
    dof rx
    limits (0.0 90.0)
  end
  begin
     id 30
     name rthumb
     direction -0.707107 -6.34968e-011 0.707107   
     length 0.90203   
     axis -90 -45 -2.85299e-015   XYZ
    dof rx rz
    limits (-45.0 45.0)
           (-45.0 45.0)
  end
:hierarchy
  begin
    root lhipjoint rhipjoint lowerback
    lhipjoint lfemur
    lfemur ltibia
    ltibia lfoot
    lfoot ltoes
    rhipjoint rfemur
    rfemur rtibia
    rtibia rfoot
    rfoot rtoes
    lowerback upperback
    upperback thorax
    thorax lowerneck lclavicle rclavicle
    lowerneck upperneck
    upperneck head
    lclavicle lhumerus
    lhumerus lradius
    lradius lwrist
    lwrist lhand lthumb
    lhand lfingers
    rclavicle rhumerus
    rhumerus rradius
    rradius rwrist
    rwrist rhand rthumb
    rhand rfingers
  end

#!OML:ASF I:\Random Stuff\random\construction\7_22_03\Session 2\subj1.ASF
:FULLY-SPECIFIED
:DEGREES
278
root 4.78454 17.7299 -6.74704 14.9848 -83.2348 -9.17516
lowerback -0.00362295 -0.00754414 -1.12234
upperback -0.261197 -0.0134262 -0.27885
thorax -0.264996 -0.00498455 0.343679
lowerneck -20.2764 0.94756 -0.103447
upperneck 36.9838 -1.20112 3.89549
head 16.8644 -0.29033 1.40916
rclavicle -1.0138e-014 1.98785e-015
rhumerus -35.5835 31.2844 -95.7775
rradius 102.969
rwrist -8.56879
rhand -23.7771 31.7581
rfingers 7.12502
rthumb 2.69258 1.79532
lclavicle -1.0138e-014 1.98785e-015
lhumerus -2.376 -57.6013 77.2156
lradius 106.21
lwrist -8.36627
lhand -29.1666 59.4086
lfingers 7.12502
lthumb -2.51263 89.3736
rfemur -1.92265 17.4301 19.1423
rtibia 4.80067
rfoot -2.641 -17.8539
rtoes -24.5756
lfemur -11.7361 -16.7174 -16.1102
ltibia 20.1755
lfoot -14.163 19.0912
ltoes -25.3822
279
root 4.77117 17.7244 -6.79351 14.1796 -82.8115 -8.45027
lowerback -0.0674854 -0.075401 -0.872717
upperback -0.250136 -0.102077 -0.174915
thorax -0.216848 -0.0497748 0.310231
lowerneck -20.3089 0.932931 -0.203372
upperneck 36.6859 -1.13983 3.90306
head 16.7134 -0.268424 1.43843
rclavicle 2.20651e-014 -3.97569e-015
rhumerus -35.1418 31.3258 -95.494
rradius 102.929
rwrist -8.80188
rhand -22.8944 30.999
rfingers 7.12502
rthumb 3.54505 1.04869
lclavicle 2.20651e-014 -3.97569e-015
lhumerus -2.61681 -56.9193 77.4191
lradius 106.811
lwrist -5.21668
lhand -28.0851 57.2009
lfingers 7.12502
lthumb -1.4681 87.1756
rfemur -1.83062 17.6138 19.3444
rtibia 4.97314
rfoot -2.64151 -18.4086
rtoes -24.0491
lfemur -11.6318 -16.9883 -15.9346
ltibia 20.099
lfoot -14.2727 18.8174
ltoes -24.447
280
root 4.75335 17.7252 -6.84553 13.6143 -82.3599 -8.00635
lowerback -0.125664 -0.135262 -0.635459
upperback -0.236369 -0.180801 -0.0883665
thorax -0.169669 -0.0895699 0.265735
lowerneck -20.3562 0.935226 -0.206115
upperneck 36.4105 -1.07952 3.87198
head 16.5791 -0.238832 1.43358
rclavicle 8.44835e-015 -6.16232e-015
rhumerus -34.814 31.313 -95.3177
rradius 102.912
rwrist -9.1985
rhand -22.1709 30.3753
rfingers 7.12502
rthumb 4.24377 0.437866
lclavicle 8.44835e-015 -6.16232e-015
lhumerus -2.89618 -56.2693 77.527
lradius 107.633
lwrist -1.35002
lhand -25.9774 53.9588
lfingers 7.12502
lthumb 0.567557 83.9378
rfemur -1.63364 17.7782 19.6474
rtibia 5.09879
rfoot -2.66428 -18.9699
rtoes -23.6129
lfemur -11.5557 -17.0515 -15.7368
ltibia 20.0553
lfoot -14.1578 18.474
ltoes -24.9489
281
root 4.73473 17.7266 -6.89832 12.6953 -81.938 -7.17642
lowerback -0.163458 -0.176539 -0.38641
upperback -0.269018 -0.235806 -0.097685
thorax -0.182405 -0.117456 0.116608
lowerneck -20.4401 0.962429 -0.0470525
upperneck 36.1618 -1.0309 3.79317
head 16.4691 -0.198291 1.37768
rclavicle -2.43511e-015 -3.37934e-015
rhumerus -34.604 31.1741 -95.2847
rradius 102.937
rwrist -10.0921
rhand -21.4935 29.689
rfingers 7.12502
rthumb 4.89785 -0.234346
lclavicle -2.43511e-015 -3.37934e-015
lhumerus -3.14511 -55.6096 77.5443
lradius 108.591
lwrist 2.80884
lhand -22.7475 50.6596
lfingers 7.12502
lthumb 3.68691 80.6074
rfemur -1.45397 17.9567 19.8836
rtibia 5.2227
rfoot -2.6805 -19.5597
rtoes -23.1536
lfemur -11.5407 -17.0602 -15.6359
ltibia 20.0488
lfoot -13.753 18.3201
ltoes -27.037
282
root 4.71204 17.724 -6.95561 11.6123 -81.5945 -6.23016
lowerback -0.16089 -0.19588 -0.234534
upperback -0.289654 -0.261738 -0.108831
thorax -0.205551 -0.130695 0.0201667
lowerneck -20.5263 0.976504 0.0962691
upperneck 35.9648 -1.00988 3.72868
head 16.3883 -0.170975 1.3265
rclavicle 8.43592e-015 -9.93923e-016
rhumerus -34.4479 30.9604 -95.226
rradius 103.011
rwrist -11.3331
rhand -21.0028 28.822
rfingers 7.12502
rthumb 5.37165 -1.08995
lclavicle 8.43592e-015 -9.93923e-016
lhumerus -3.25926 -54.8245 77.4186
lradius 109.594
lwrist 6.9597
lhand -18.9305 47.7145
lfingers 7.12502
lthumb 7.37222 77.566
rfemur -1.23743 18.2078 20.1097
rtibia 5.41217
rfoot -2.72238 -20.1963
rtoes -22.7236
lfemur -11.3778 -17.1636 -15.5835
ltibia 20.0276
lfoot -13.5679 18.2271
ltoes -28.0031
283
root 4.67809 17.7144 -7.02676 10.2181 -81.3465 -5.14973
lowerback -0.124298 -0.203641 -0.436322
upperback -0.219211 -0.271692 -0.00885872
thorax -0.15257 -0.135275 0.235454
lowerneck -20.6722 1.10525 0.261348
upperneck 35.7659 -0.765414 3.5327
head 16.3132 -0.0654997 1.25898
rclavicle 2.57426e-014 -1.59028e-015
rhumerus -34.3432 30.7636 -95.0969
rradius 103.107
rwrist -12.5878
rhand -20.2 27.9824
rfingers 7.12502
rthumb 6.14676 -1.9084
lclavicle 2.57426e-014 -1.59028e-015
lhumerus -3.41123 -53.8755 77.3426
lradius 110.56
lwrist 10.438
lhand -15.1459 45.5936
lfingers 7.12502
lthumb 11.024 75.2842
rfemur -0.866383 18.5528 20.4338
rtibia 5.84901
rfoot -2.958 -20.8765
rtoes -22.0281
lfemur -10.8664 -16.9904 -15.5924
ltibia 19.9109
lfoot -13.7664 17.7964
ltoes -27.7124
